<?xml version="1.0" encoding="utf-8"?>
<!-- Generator: Adobe Illustrator 23.0.4, SVG Export Plug-In . SVG Version: 6.00 Build 0)  -->
<svg version="1.1" id="Layer_1" xmlns="http://www.w3.org/2000/svg" xmlns:xlink="http://www.w3.org/1999/xlink" x="0px" y="0px"
	 width="183px" height="45px" viewBox="0 0 183 45" style="enable-background:new 0 0 183 45;" xml:space="preserve">
<style type="text/css">
	.st0{fill:#EC1C24;}
	.st1{fill:#FFFFFF;}
</style>
<g>
	<g>
		<path class="st0" d="M51.6,3.8H7.8c-0.3,0-0.5,0.1-0.7,0.3l-6.6,7.7c-0.2,0.2,0,0.7,0.3,0.7h43.7c0.3,0,0.5-0.1,0.7-0.3l6.6-7.7
			C52,4.3,51.9,3.8,51.6,3.8z"/>
	</g>
	<g>
		<path class="st1" d="M11.2,10.1l-1.5,0l0.3-1.2l-2,0l-0.3,1.2l-1.5,0l0.9-3.2l1.1-0.6l3.2,0l0.7,0.6L11.2,10.1z M10.3,8l0.3-0.9
			l-2,0L8.3,8L10.3,8z"/>
		<path class="st1" d="M16.4,10.1l-4.3,0l1.1-3.8l1.5,0l-0.9,2.9l2.8,0L16.4,10.1z"/>
		<path class="st1" d="M21.3,10.1l-4.3,0l1.1-3.8l1.5,0l-0.9,2.9l2.8,0L21.3,10.1z"/>
		<path class="st1" d="M24.7,8.9l-2.4,0l0.2-0.6l2.4,0L24.7,8.9z"/>
		<path class="st1" d="M30.4,10.1l-1.5,0L27.2,8l-0.6,2.1l-1.5,0l1.1-3.8l1.2,0l1.9,2.2L30,6.3l1.5,0L30.4,10.1z"/>
		<path class="st1" d="M36.5,10.1l-5.2,0l1.1-3.8l5.1,0l-0.3,0.9l-3.3,0l-0.2,0.6l2.8,0l-1.1,0.8l-1.9,0l-0.2,0.7l3.4,0L36.5,10.1z"
			/>
		<path class="st1" d="M44.3,10.1l-7,0l1.1-3.8l1.5,0l-0.9,2.9l1.2,0l0.9-2.9l1.5,0l-0.9,2.9l1.2,0l0.9-2.9l1.5,0L44.3,10.1z"/>
	</g>
	<g id="XMLID_234_">
		<path id="XMLID_239_" d="M61.4,0.1c-0.2,0-2.5,0-2.9,0c-0.4,0-0.5,0.2-0.5,0.6V12c0,0.5,0.3,0.5,0.7,0.5c0.2,0,2.4,0,2.6,0
			c0.5,0,0.5-0.3,0.5-0.8c0-0.8,0-10.2,0-11C61.8,0.3,61.7,0.2,61.4,0.1"/>
		<path id="XMLID_238_" d="M76.5,6.8c-1.1-0.6-6.7-2.6-7.9-3.1c-0.3-0.1-0.4-0.3-0.4-0.5c0.1-0.2,0.4-0.2,0.5-0.2c0.1,0,1.3,0,8.3,0
			c0.4,0,0.6-0.1,0.6-0.5c0-0.2,0-1.5,0-1.6c0-0.5-0.1-0.7-0.6-0.7c-0.6,0-7.5,0-9.7,0.1c-2.4,0.1-3.2,1.3-3.3,2.6
			c-0.2,1.2,0.3,2.4,1.4,3.1c1,0.7,4.6,1.9,8,3.2C74,9.2,74,9.4,73.9,9.6c-0.1,0.1-0.3,0.1-0.6,0.2c-0.8,0-7.9-0.1-8.3-0.1
			c-0.5,0-0.6,0.2-0.6,0.8c0,0.1,0,1.2,0,1.3c0,0.5,0.1,0.7,0.6,0.7c3,0,8.2,0.1,9.2,0c1.7-0.1,2.7-0.4,3.4-1.3
			C78.3,10.1,78.4,7.9,76.5,6.8"/>
		<path id="XMLID_237_" d="M100.5,9c1.4-0.7,5.4-2.5,7.4-3.8c1.2-0.8,1.9-2.1,1.3-3.5c-0.4-1.1-1.3-1.5-3.2-1.6
			c-1.4-0.1-9.5,0-9.7,0c-0.6,0-0.6,0.2-0.6,0.8c0,0.1,0,1.4,0,1.6c0,0.4,0.3,0.5,0.6,0.5c0.2,0,8-0.1,8.5-0.1
			c0.3,0,0.4,0.1,0.4,0.3c0,0.1-0.1,0.2-0.3,0.3c-2.4,1.2-6.4,3-7.6,3.7c-1.7,0.9-2.1,2-2,3c0.1,1.2,0.8,2.2,3.2,2.3
			c2.2,0.1,8.3,0,9.9-0.1c0.5,0,0.6-0.2,0.6-0.6c0-0.2,0-1.1,0-1.2c0-0.7-0.1-0.9-0.7-0.9c-0.5,0-6.5,0.1-8.3,0.1
			c-0.3,0-0.4-0.2-0.3-0.3C100,9.3,100.2,9.2,100.5,9"/>
		<path id="XMLID_236_" d="M92.9,0.1c-0.4,0-2.5,0-2.8,0c-0.3,0-0.5,0.1-0.5,0.6c0,0.4,0,5.6,0,6.6c0,1.3-0.2,2.2-1.7,2.3
			c-0.9,0.1-1.5,0.1-2.3,0c-1.4-0.1-1.7-0.7-1.7-2.5c0-1.1,0-5.8,0-6.3c0-0.5,0-0.7-0.6-0.7c-0.4,0-2.4,0-2.6,0
			c-0.3,0-0.6,0.1-0.6,0.6c0,0.3,0,4.2,0,7.5c0,4.2,2.7,4.1,4,4.2c0.8,0.1,4.1,0.1,5.6,0c2.7-0.2,3.5-1.7,3.6-3.9
			c0-1.4,0.1-6.5,0.1-7.7C93.3,0.4,93.3,0.1,92.9,0.1"/>
		<path id="XMLID_235_" d="M125,0.7c0-0.4-0.1-0.6-0.5-0.7c-0.4,0-2.5,0-2.7,0c-0.4,0-0.6,0.2-0.6,0.6c0,0.4,0,6,0,7
			c0,1.5-0.5,1.7-1.1,1.8c-0.7,0.2-2.8,0.1-3.1,0.1c-0.8-0.1-1.4-0.5-1.4-1.9c0-1.4,0-6.5,0-7c0-0.4-0.2-0.6-0.5-0.6
			c-0.3,0-2.3,0-2.7,0c-0.5,0-0.6,0.3-0.6,0.7c0,0.9,0,7,0.1,8c0.2,2.4,1.3,3.4,3.2,3.6c1.8,0.2,6,0.2,7.3-0.1
			c2.1-0.5,2.5-2.3,2.6-4.4C125,6.6,125,1.3,125,0.7"/>
	</g>
	<g id="XMLID_221_">
		<g id="XMLID_222_">
			<g id="XMLID_231_">
				<path id="XMLID_232_" d="M170.5,44.9h11.6c0.4,0,0.6-0.5,0.3-0.8l-12.5-12c-0.2-0.2-0.2-0.6,0-0.8l12.3-10.9
					c0.3-0.3,0.1-0.8-0.3-0.8h-12.7c-0.3,0-0.6,0.1-0.8,0.3l-5.5,4.6c-0.3,0.2-0.6,0.2-0.9,0l-4.8-4.6c-0.2-0.2-0.5-0.3-0.7-0.3
					h-11.3c-0.4,0-0.6,0.5-0.3,0.8l10.2,9.9c0.2,0.2,0.2,0.6,0,0.8l-9.2,7.7c-0.3,0.3-0.8,0.1-0.9-0.3l-6.1-18.4
					c-0.1-0.4-0.4-0.6-0.8-0.6h-10.7c-0.3,0-0.6,0.2-0.9,0.4l-15.5,18.7c-0.3,0.3-0.7,0.1-0.8-0.3l-1.7-18.3c0-0.3-0.3-0.6-0.6-0.6
					h-7.6c-0.3,0-0.6,0.2-0.8,0.4l-7.3,9.6c-0.3,0.3-0.8,0.2-0.8-0.3l-0.5-9.1c0-0.3-0.3-0.6-0.6-0.6h-9c-0.3,0-0.6,0.2-0.8,0.4
					L64.2,44.1c-0.2,0.3,0,0.8,0.4,0.8h9.5c0.2,0,0.4-0.1,0.6-0.3l6.6-8.9c0.1-0.2,0.4-0.3,0.6-0.3h2.3c0.2,0,0.3,0.1,0.3,0.3
					l-0.1,8.6c0,0.3,0.3,0.6,0.6,0.6h6.6c0.2,0,0.4-0.1,0.6-0.3l6.6-8.9c0.1-0.2,0.4-0.3,0.6-0.3h2.1c0.2,0,0.3,0.1,0.3,0.3l0.8,8.6
					c0,0.3,0.3,0.6,0.6,0.6h13.9c0.2,0,0.5-0.1,0.6-0.3l11.5-13.1c0.2-0.2,0.4-0.3,0.6-0.3h2.3c0.2,0,0.3,0.1,0.4,0.3l2.4,6.6
					c0.1,0.2,0,0.4-0.1,0.5l-6,5.4c-0.3,0.3-0.1,0.8,0.3,0.8h24.9c0.3,0,0.6-0.1,0.8-0.3l7.4-6.5c0.3-0.2,0.6-0.2,0.9,0l6.7,6.5
					C169.9,44.8,170.2,44.9,170.5,44.9z"/>
			</g>
			<g id="XMLID_227_">
				<g id="XMLID_228_">
					<path id="XMLID_229_" d="M61.5,25.9l-3.2,10.5c-0.1,0.3,0.2,0.6,0.5,0.5c3.3-1.4,8.4-3.8,11.9-5.5c0.4-0.2,0.4-0.7,0-0.9
						c-2.2-1.3-6-3.5-8.4-4.8C61.9,25.5,61.6,25.6,61.5,25.9z"/>
				</g>
			</g>
			<g id="XMLID_223_">
				<path id="XMLID_224_" d="M0.9,44.9l39.3,0c0.5,0,1-0.1,1.5-0.3c4-1.7,9.2-4.2,12.8-6c0.5-0.2,0.8-0.7,1-1.2l3.8-12.2
					c0.1-0.4-0.1-0.9-0.5-1l-11-4.2c-0.5-0.2-1-0.3-1.6-0.3H1.9c-0.4,0-0.6,0.5-0.3,0.8l4.3,5C6,25.6,6.1,25.9,6,26.1L0.5,44.3
					C0.4,44.6,0.6,44.9,0.9,44.9z M35.3,38.8H16.5c-0.2,0-0.3-0.2-0.3-0.4l3.7-12.7c0.1-0.2,0.2-0.3,0.4-0.3h21.1
					c0.4,0,0.9,0.1,1.3,0.3l2.5,1.3c0.1,0.1,0.2,0.3,0.2,0.4l-2.1,7.2c-0.1,0.3-0.2,0.5-0.5,0.6l-6.2,3.2
					C36.2,38.7,35.7,38.8,35.3,38.8z"/>
			</g>
		</g>
	</g>
</g>
</svg>
