<?xml version="1.0" encoding="UTF-8"?>
<svg width="185px" height="37px" viewBox="0 0 185 37" version="1.1" xmlns="http://www.w3.org/2000/svg" xmlns:xlink="http://www.w3.org/1999/xlink">
    <!-- Generator: Sketch 64 (93537) - https://sketch.com -->
    <title>Combined Shape</title>
    <desc>Created with Sketch.</desc>
    <g id="Page-1" stroke="none" stroke-width="1" fill="none" fill-rule="evenodd">
        <g id="Group" transform="translate(0.000000, 0.999976)" fill="#CE0E2D">
            <path d="M2.37999171,1.20918675 C3.36066131,1.11030099 9.5180319,1.13486497 10.1762206,1.20918675 C11.2041286,1.32381865 11.4409505,1.77037918 11.4409505,2.81403334 C11.4409505,5.02227201 11.4535474,30.7886257 11.4409505,32.9956047 C11.4340222,34.2836389 11.3672586,35.0533102 9.98159826,35.1515662 C9.31585146,35.2006941 3.42427572,35.196915 2.8108061,35.1597542 C1.89941952,35.1062173 1,35.1446379 1,33.7482702 L1,33.7482702 L1,2.92992493 C1,1.77541794 1.34830462,1.31185158 2.37999171,1.20918675 Z M26.720249,1.34472952 C32.5026095,1.11996912 50.601794,1.18859473 52.9690066,1.19625294 L53.1195975,1.1967158 C54.5317113,1.20112472 54.7307425,1.74972024 54.7760914,3.08814214 C54.789948,3.46290027 54.8195508,6.93649876 54.7565662,7.53485208 C54.635006,8.7202215 54.1380578,9.01309971 53.060392,9.00869079 C33.8299461,8.9356287 30.6435572,8.89783796 30.3053301,8.90602595 C29.9217542,8.91484379 29.0406002,8.89783796 28.8938461,9.57492198 C28.7722859,10.1354846 29.033042,10.5713377 29.9242735,10.953654 C33.1112923,12.324198 48.577151,17.7093779 51.5349059,19.4414533 C56.7216845,22.4829777 56.4325853,28.5074509 54.4007034,31.4192271 C52.5804496,34.0299371 49.9741485,34.8947151 45.2339306,35.0597347 C42.2503519,35.164289 28.148109,35.086818 19.9714534,34.9986396 C18.5990198,34.9835234 18.361568,34.4311488 18.3464517,32.9585697 C18.3420428,32.5428717 18.3382637,29.7060471 18.3458219,29.3312889 C18.377944,27.7491168 18.6380702,27.3069652 20.0482945,27.2653954 C21.1990224,27.2332732 40.5044199,27.5614228 42.764306,27.5425274 C43.637272,27.5324499 44.2960905,27.470725 44.4522922,27.1261995 C44.6802963,26.6172842 44.5555868,26.059241 43.0937152,25.49238 C34.0176401,21.9784714 24.1807115,18.7259487 21.33129,16.8622356 C18.3395234,14.9040456 17.1717897,11.7365521 17.6309471,8.38514364 C18.1001821,4.95878358 20.0684496,1.60422591 26.720249,1.34472952 Z M88.6643671,1.13738435 C89.2759472,1.06180288 95.2254687,1.06684164 96.1954309,1.14935141 C97.3448992,1.24634764 97.5351125,1.85288895 97.5546377,3.11950845 C97.6062851,6.52193439 97.5130679,20.4169582 97.3996957,24.2665745 C97.2315269,30.1134312 95.1650035,34.2603346 87.6887363,34.8549089 C83.5676565,35.1830584 74.3309708,35.1421185 72.2524803,34.9500156 C68.822971,34.6338331 61.5199112,34.9210427 61.4197658,23.4194322 C61.3462591,15.0426339 61.4077704,5.10754962 61.4152614,3.19632039 L61.4159867,2.93433385 C61.4159867,1.38176444 62.1680224,1.21296582 62.920058,1.16446771 C63.5429753,1.12541728 69.1353744,1.12730682 70.1481661,1.16761694 C71.5590203,1.22619258 71.6780611,1.89445876 71.6818402,3.15414996 C71.6842292,4.34450385 71.6532022,15.9804978 71.6499861,19.8288363 L71.649718,20.3860957 C71.649718,25.3625058 72.3904165,26.7746197 76.2444417,27.1474883 C78.5213335,27.3673044 80.2389225,27.3673044 82.6392641,27.2022848 C86.7011383,26.9220035 87.2402862,24.5267007 87.2402862,20.9579956 C87.2402862,18.6762884 87.2385815,8.57421418 87.2379766,4.51840347 L87.2377668,2.8770179 C87.2377668,1.36790784 87.9016241,1.23123134 88.6643671,1.13738435 Z M105.942858,1.11804809 C106.461851,1.1098601 128.461098,0.97885221 132.326461,1.12560624 C137.317987,1.31518976 139.780054,2.52386347 140.97991,5.53515528 C142.556413,9.4912155 140.711595,13.1392812 137.458443,15.2341477 C131.988234,18.7562443 121.103242,23.5978674 117.150331,25.508819 C116.210601,25.9635675 115.719322,26.2356608 115.559341,26.5335778 C115.306773,27.0009232 115.520921,27.4292182 116.271067,27.4399256 C120.9905,27.4903132 137.557958,27.1407489 138.833396,27.1294117 C140.480442,27.1155551 140.673805,27.5948676 140.694589,29.6198212 C140.698369,29.9945793 140.727971,32.537266 140.673805,33.0172084 C140.549095,34.1559692 140.479182,34.744245 138.983299,34.7826656 C134.842064,34.8922587 117.937638,35.1567939 112.034095,34.9539836 C105.311753,34.7228303 103.476383,31.8576626 103.189173,28.6378919 C102.930937,25.7431215 104.031907,22.848981 108.787241,20.3573118 C112.045432,18.6516899 122.98648,13.5637972 129.519869,10.3257609 C130.022486,10.0763421 130.239782,9.82062475 130.204511,9.41815341 C130.161052,8.95143782 129.880141,8.70579804 129.195498,8.7039085 C127.796328,8.69966492 108.034636,8.8377936 106.100132,8.84815922 L105.957345,8.84877299 C105.164369,8.84877299 104.412334,8.71587557 104.310299,7.50279294 C104.26432,6.94663928 104.266209,3.62861265 104.273138,3.25763359 C104.295812,1.79891118 104.392808,1.14261207 105.942858,1.11804809 Z M175.33446,1.044986 C175.845265,0.999007269 181.527732,0.969404526 182.605398,1.05254415 C183.730932,1.14009268 183.98098,1.75860106 183.98287,2.8986216 C183.986019,4.33907849 184.049004,18.9741709 183.911697,22.1171004 C183.650311,28.0962247 182.498954,32.8408516 176.849868,34.2567445 C173.359894,35.1309702 161.825531,35.0629469 156.985168,34.6277236 C151.75367,34.1559692 148.765053,31.4703076 148.210789,24.8733048 C147.975857,22.0849783 148.020576,5.3902908 148.056477,3.04474578 C148.074742,1.85433759 148.143395,1.1885908 149.619754,1.09348411 C150.877555,1.01349372 156.175187,1.03616816 157.036815,1.09033488 C158.013706,1.1514299 158.488609,1.54760279 158.488609,2.77076294 C158.488609,4.02667507 158.479162,17.9695671 158.52766,21.8021776 C158.579307,25.7664258 160.014096,26.7300896 162.268943,27.0481616 C163.001453,27.1514563 168.814298,27.2881328 170.613137,26.7987428 C172.403788,26.3118721 173.645844,25.7727243 173.720795,21.7618675 C173.772443,19.0409345 173.774332,3.70734335 173.793228,2.73360205 C173.814642,1.51988958 174.120747,1.1526896 175.33446,1.044986 Z" id="Combined-Shape"></path>
        </g>
    </g>
</svg>