<?xml version="1.0" encoding="UTF-8"?>
<svg width="70px" height="29px" viewBox="0 0 70 29" version="1.1" xmlns="http://www.w3.org/2000/svg" xmlns:xlink="http://www.w3.org/1999/xlink">
    <!-- Generator: Sketch 54.1 (76490) - https://sketchapp.com -->
    <title>Group 12</title>
    <desc>Created with Sketch.</desc>
    <defs>
        <linearGradient x1="50%" y1="0%" x2="50%" y2="100.001%" id="linearGradient-1">
            <stop stop-color="#EE0009" offset="0%"></stop>
            <stop stop-color="#BF0000" offset="100%"></stop>
        </linearGradient>
        <path d="M47.768,7.80958382 C48.1295164,7.75275927 50.8128001,7.30499336 51.1946029,6.50845588 C51.6043088,5.65301471 52.0140147,4.75433824 52.1756324,3.91845588 C52.30225,3.26169118 52.2219559,2.24875 51.5157794,2.14889706 C50.8135814,2.0516539 47.8018923,1.98901748 47.7679799,1.9883148 L47.768,7.80958382 Z M47.7010882,7.83948529 L47.7010882,7.81910294 L47.7010882,1.98645588 L47.7010882,1.95969118 L47.7676912,1.95969118 L47.7007794,1.95948529 L47.7007794,1.98727941 C47.0285735,1.96772059 40.8562206,1.80404412 39.2596029,1.95639706 L39.40475,8.33051471 C39.40475,8.33051471 46.5323971,7.96404412 47.7007794,7.81889706 L47.7007794,7.83948529 Z M54.8924559,25.3943529 C56.4098088,25.3943529 57.6440735,24.1590588 57.6440735,22.6417059 C57.6440735,21.1253824 56.4098088,19.8900882 54.8924559,19.8900882 C53.3730441,19.8900882 52.1398088,21.1253824 52.1398088,22.6417059 C52.1398088,24.1590588 53.3730441,25.3943529 54.8924559,25.3943529 Z M54.8924559,16.7997941 C58.1145147,16.7997941 60.7343676,19.4206765 60.7343676,22.6417059 C60.7343676,25.8637647 58.1145147,28.4846471 54.8924559,28.4846471 C51.6714265,28.4846471 49.0505441,25.8637647 49.0505441,22.6417059 C49.0505441,19.4206765 51.6714265,16.7997941 54.8924559,16.7997941 Z M11.3822059,25.3943529 C12.8995588,25.3943529 14.1327941,24.1590588 14.1327941,22.6417059 C14.1327941,21.1253824 12.8995588,19.8900882 11.3822059,19.8900882 C9.86279412,19.8900882 8.62852941,21.1253824 8.62852941,22.6417059 C8.62852941,24.1590588 9.86279412,25.3943529 11.3822059,25.3943529 Z M11.3822059,16.7997941 C14.6022059,16.7997941 17.2230882,19.4206765 17.2230882,22.6417059 C17.2230882,25.8637647 14.6022059,28.4846471 11.3822059,28.4846471 C8.16014706,28.4846471 5.54029412,25.8637647 5.54029412,22.6417059 C5.54029412,19.4206765 8.16014706,16.7997941 11.3822059,16.7997941 Z M67.3906471,6.40304412 C66.4672647,4.98657353 65.2391765,3.26025 64.4959412,2.28333824 C64.4527059,2.22466176 64.3940294,2.17422059 64.3415294,2.12069118 L64.4866765,2.12377941 C64.4866765,2.12377941 66.738,5.33451471 67.1127059,5.79363235 C67.2599118,5.97275 67.3535882,6.19613235 67.3906471,6.40304412 Z M35.8079853,8.80404412 L36.1198971,2.28375 C36.1198971,2.28375 30.2573971,2.49889706 26.9478382,4.63904412 C26.9478382,4.63904412 22.4390147,7.50286765 21.3838676,8.75875 C20.3276912,10.0166912 22.4637206,9.57507353 22.8168088,9.55963235 C23.1709265,9.54625 35.8079853,8.80404412 35.8079853,8.80404412 Z M69.5541618,16.2075735 C69.4913676,17.3327206 69.7610735,17.3327206 69.5634265,18.0841912 C69.3657794,18.8336029 69.8043088,18.5216912 69.1784265,19.2093382 C68.5546029,19.8959559 64.2959265,21.4513971 64.2825441,21.4555147 C63.9201912,21.6500735 63.2098971,21.5450735 62.1454853,21.8631618 C61.8078382,17.8813971 59.0068088,14.7519853 54.9375441,14.7519853 C50.6448971,14.7519853 47.1623971,18.2334559 47.1623971,22.5271324 C47.1623971,22.6918382 47.1778382,22.8544853 47.1891618,23.0171324 L18.6981324,23.0922794 C18.7125441,22.9049265 18.7269559,22.7186029 18.7269559,22.5271324 C18.7269559,18.2334559 16.1729853,14.9249265 11.1751912,14.9249265 C7.66798529,14.9249265 4.17930882,18.2334559 4.17930882,22.5271324 C4.17930882,22.7113971 4.19475,22.8894853 4.20607353,23.0706618 C3.02533824,22.5981618 0.421955882,21.8528676 0.250044118,21.2218382 C0.250044118,21.2218382 -0.0670147059,17.7444853 0.0132794118,16.2971324 C0.0925441176,14.8466912 0.725632353,13.0606618 1.59342647,12.2896324 C1.59342647,12.2896324 2.52916176,10.9359559 6.56033824,10.3111029 C10.5915147,9.68419118 18.4294559,8.86066176 18.4294559,8.86066176 C18.4294559,8.86066176 19.9313676,8.13801471 20.1671029,7.89507353 C20.4048971,7.65316176 27.0703382,2.62654412 30.5487206,1.80713235 C31.0551912,1.68772059 32.2431324,1.58169118 33.8469559,1.48595588 L31.6491618,1.54360294 C31.6491618,1.54360294 32.7763676,0.704632353 33.1376912,0.74375 C33.4990147,0.782867647 58.4910735,-0.000514705882 58.9429853,-0.000514705882 C59.3948971,-0.000514705882 59.9816618,0.793161765 59.9816618,0.793161765 L59.8581324,0.79625 C60.3851912,0.834338235 61.0162206,0.90125 61.6554853,1.01860294 L65.1832794,1.01860294 C65.1832794,1.01860294 65.7401912,1.25433824 65.3973971,1.42625 C65.0546029,1.59816176 64.1157794,1.92036765 64.1157794,1.92036765 L64.1116618,1.92036765 C64.1960735,1.98316176 64.2712206,2.05007353 64.3412206,2.12007353 L61.5484265,2.04492647 C61.5484265,2.04492647 56.9212206,2.21169118 56.5043088,2.21169118 C56.0873971,2.21169118 55.3781324,2.67080882 55.7538676,3.33786765 C56.1285735,4.00492647 57.0457794,6.54860294 58.1719559,6.71433824 C59.2971029,6.88110294 66.6965147,7.00257353 67.1134265,7.00257353 C67.3666618,7.00257353 67.4479853,6.72463235 67.3903382,6.40345588 C67.9441618,7.25272059 68.3888676,7.99183824 68.5535735,8.39022059 C68.9910735,9.45360294 69.0538676,11.2355147 68.9910735,11.7831618 C68.9282794,12.3308088 68.6565147,14.3309559 69.0106324,14.8322794 C69.3657794,15.3315441 69.6159265,15.0813971 69.5541618,16.2075735 Z" id="path-2"></path>
        <filter x="-0.7%" y="-1.8%" width="101.4%" height="103.5%" filterUnits="objectBoundingBox" id="filter-3">
            <feGaussianBlur stdDeviation="0.5" in="SourceAlpha" result="shadowBlurInner1"></feGaussianBlur>
            <feOffset dx="0" dy="0" in="shadowBlurInner1" result="shadowOffsetInner1"></feOffset>
            <feComposite in="shadowOffsetInner1" in2="SourceAlpha" operator="arithmetic" k2="-1" k3="1" result="shadowInnerInner1"></feComposite>
            <feColorMatrix values="0 0 0 0 0.498039216   0 0 0 0 0   0 0 0 0 0  0 0 0 1 0" type="matrix" in="shadowInnerInner1"></feColorMatrix>
        </filter>
    </defs>
    <g id="Page-1" stroke="none" stroke-width="1" fill="none" fill-rule="evenodd">
        <g id="Group-12" transform="translate(0.000000, 0.000000)" fill-rule="nonzero">
            <g id="Combined-Shape">
                <use fill="url(#linearGradient-1)" xlink:href="#path-2"></use>
                <use fill="black" fill-opacity="1" filter="url(#filter-3)" xlink:href="#path-2"></use>
            </g>
        </g>
    </g>
</svg>