<?xml version="1.0" encoding="UTF-8"?>
<svg width="65px" height="33px" viewBox="0 0 65 33" version="1.1" xmlns="http://www.w3.org/2000/svg" xmlns:xlink="http://www.w3.org/1999/xlink">
    <!-- Generator: Sketch 54.1 (76490) - https://sketchapp.com -->
    <title>Group 12</title>
    <desc>Created with Sketch.</desc>
    <defs>
        <linearGradient x1="50%" y1="0%" x2="50%" y2="100.001%" id="linearGradient-1">
            <stop stop-color="#EE0009" offset="0%"></stop>
            <stop stop-color="#BF0000" offset="100%"></stop>
        </linearGradient>
        <path d="M12.7608333,30.2591667 C14.025,30.2591667 15.0525,29.2308333 15.0525,27.9658333 C15.0525,26.7025 14.025,25.675 12.7608333,25.675 C11.4958333,25.675 10.4683333,26.7025 10.4683333,27.9658333 C10.4683333,29.2308333 11.4958333,30.2591667 12.7608333,30.2591667 Z M12.7608333,23.1016667 C15.4441667,23.1016667 17.6258333,25.2833333 17.6258333,27.9658333 C17.6258333,30.65 15.4441667,32.8325 12.7608333,32.8325 C10.0783333,32.8325 7.89583333,30.65 7.89583333,27.9658333 C7.89583333,25.2833333 10.0783333,23.1016667 12.7608333,23.1016667 Z M39.2643333,30.2591667 C40.5285,30.2591667 41.556,29.2308333 41.556,27.9658333 C41.556,26.7025 40.5285,25.675 39.2643333,25.675 C37.9993333,25.675 36.9718333,26.7025 36.9718333,27.9658333 C36.9718333,29.2308333 37.9993333,30.2591667 39.2643333,30.2591667 Z M39.2643333,23.1016667 C41.9476667,23.1016667 44.1293333,25.2833333 44.1293333,27.9658333 C44.1293333,30.65 41.9476667,32.8325 39.2643333,32.8325 C36.5818333,32.8325 34.3993333,30.65 34.3993333,27.9658333 C34.3993333,25.2833333 36.5818333,23.1016667 39.2643333,23.1016667 Z M50.6485833,30.2591667 C51.91275,30.2591667 52.94025,29.2308333 52.94025,27.9658333 C52.94025,26.7025 51.91275,25.675 50.6485833,25.675 C49.3835833,25.675 48.3560833,26.7025 48.3560833,27.9658333 C48.3560833,29.2308333 49.3835833,30.2591667 50.6485833,30.2591667 Z M50.6485833,23.1016667 C53.3319167,23.1016667 55.5135833,25.2833333 55.5135833,27.9658333 C55.5135833,30.65 53.3319167,32.8325 50.6485833,32.8325 C47.9660833,32.8325 45.7835833,30.65 45.7835833,27.9658333 C45.7835833,25.2833333 47.9660833,23.1016667 50.6485833,23.1016667 Z M58.9541667,26.18075 L62.5308333,26.18075 L62.5308333,25.08825 L58.9541667,25.08825 L58.9541667,26.18075 Z M58.9541667,27.6549167 L62.5308333,27.6549167 L62.5308333,26.80575 L58.9541667,26.80575 L58.9541667,27.6549167 Z M27.7916667,26.18075 L31.5933333,26.18075 L31.5933333,25.08825 L27.7916667,25.08825 L27.7916667,26.18075 Z M26.4891667,27.6549167 L31.5933333,27.6549167 L31.5933333,26.80575 L26.4891667,26.80575 L26.4891667,27.6549167 Z M26.4891667,26.18075 L27.1658333,26.18075 L27.1658333,25.08825 L26.4891667,25.08825 L26.4891667,26.18075 Z M10.095,13.0174167 C12.045,12.5224167 13.6225,12.4140833 13.6075,11.67075 C13.5933333,10.92825 13.5616667,6.67241667 13.5,6.40908333 C13.4375,6.14658333 13.51,5.80575 12.9091667,5.71325 C12.3083333,5.61991667 6.53583333,5.82158333 6.07166667,5.94491667 C5.6075,6.06908333 4.77166667,6.42491667 4.44666667,7.46158333 C4.12166667,8.49908333 3.37833333,12.0340833 3.48666667,14.08075 C3.48666667,14.08075 3.35666667,15.55575 3.8625,15.3540833 C4.36916667,15.15325 8.145,13.5124167 10.095,13.0174167 Z M2.31833333,12.4215833 C2.35916667,12.1190833 3.3625,8.01741667 4.15833333,6.00158333 L1.67166667,6.00158333 C1.56666667,6.00158333 1.46083333,6.12991667 1.46083333,6.41575 L1.46083333,6.70908333 C1.805,6.78658333 2.06666667,7.07908333 2.06666667,7.44658333 L2.06666667,10.4365833 C2.06666667,10.80325 1.805,11.0965833 1.46083333,11.1740833 L1.46083333,12.30075 C1.46083333,12.7690833 1.47666667,12.7690833 1.75,12.7690833 L2.19416667,12.7690833 C2.25916667,12.6249167 2.30833333,12.4990833 2.31833333,12.4215833 Z M20.1008333,-8.33333333e-05 L64.9358333,-8.33333333e-05 L64.9358333,21.09575 L64.9358333,21.1999167 L64.9358333,24.67075 C64.9358333,24.67075 64.9133333,25.08825 64.445,25.08825 L63.1558333,25.08825 L63.1558333,26.18075 L64.1458333,26.18075 L64.1458333,26.80575 L63.1558333,26.80575 L63.1558333,27.6549167 L64.1458333,27.6549167 L64.1458333,28.2799167 L57.1841667,28.2799167 L57.1841667,27.6549167 L58.33,27.6549167 L58.33,26.80575 L57.1841667,26.80575 L57.1841667,26.18075 L58.33,26.18075 L58.33,25.08825 L56.5758333,25.08825 C55.5483333,22.8824167 53.2833333,21.34575 50.6491667,21.34575 C48.2008333,21.34575 46.0708333,22.67075 44.9566667,24.6265833 C43.8416667,22.67075 41.7116667,21.34575 39.2641667,21.34575 C36.6291667,21.34575 34.365,22.8824167 33.3366667,25.08825 L32.2183333,25.08825 L32.2183333,26.18075 L33.5033333,26.18075 L33.5033333,26.80575 L32.2183333,26.80575 L32.2183333,27.6549167 L33.5033333,27.6549167 L33.5033333,28.2799167 L18.6425,28.2799167 L18.6425,27.6549167 L19.7883333,27.6549167 L19.7883333,26.80575 L18.6425,26.80575 L18.6425,26.18075 L19.7883333,26.18075 L19.7883333,25.08825 L19.1716667,25.08825 L18.9375,25.08825 L18.695,25.08825 C17.7041667,23.1099167 15.8183333,21.4415833 12.8175,21.4415833 C9.6925,21.4415833 6.35916667,22.9124167 6.35916667,28.6415833 L3.36416667,28.6415833 C3.2075,28.3790833 2.65666667,27.46325 2.56833333,27.2040833 C2.525,27.0799167 2.49,26.8365833 2.46916667,26.5915833 C2.07083333,26.5999167 1.29666667,26.6515833 1.23,26.6515833 C1.15666667,26.6515833 1.04416667,26.31075 1.04416667,26.31075 C1.04416667,26.31075 0.469166667,22.55075 0.518333333,22.14825 C0.5675,21.74575 0.688333333,21.65325 1.04416667,21.6374167 C1.04416667,21.6374167 1.335,21.62075 1.6575,21.6174167 L1.65666667,21.6149167 L1.55583333,21.12575 L1.52916667,21.1265833 C1.52916667,21.1265833 1.25083333,20.9640833 1.27416667,20.5924167 C1.2975,20.2215833 1.1575,14.8590833 1.50583333,14.0349167 C1.50583333,14.0349167 1.685,13.73825 1.875,13.3940833 L1.75,13.3940833 C0.835833333,13.3940833 0.835833333,12.7099167 0.835833333,12.30075 L0.835833333,11.2065833 L0.770833333,11.2065833 C0.345,11.2065833 5.68434189e-14,10.8615833 5.68434189e-14,10.4365833 L5.68434189e-14,7.44658333 C5.68434189e-14,7.02075 0.345,6.67575 0.770833333,6.67575 L0.835833333,6.67575 L0.835833333,6.41575 C0.835833333,5.70158333 1.26916667,5.37658333 1.67166667,5.37658333 L4.43666667,5.37658333 C4.4575,5.33491667 4.48,5.28491667 4.50083333,5.24825 C4.50083333,5.24825 4.8025,4.64491667 5.33666667,4.59908333 C5.87,4.55241667 17.2625,4.45991667 17.2625,4.45991667 C17.2625,4.45991667 19.1716667,4.45991667 19.1716667,6.42491667 L19.1716667,17.0874167 L19.1716667,17.8765833 L19.1716667,18.7899167 L19.1716667,21.09575 L20.1008333,21.09575 L20.1008333,-8.33333333e-05 Z" id="path-2"></path>
        <filter x="-0.8%" y="-1.5%" width="101.5%" height="103.0%" filterUnits="objectBoundingBox" id="filter-3">
            <feGaussianBlur stdDeviation="0.5" in="SourceAlpha" result="shadowBlurInner1"></feGaussianBlur>
            <feOffset dx="0" dy="0" in="shadowBlurInner1" result="shadowOffsetInner1"></feOffset>
            <feComposite in="shadowOffsetInner1" in2="SourceAlpha" operator="arithmetic" k2="-1" k3="1" result="shadowInnerInner1"></feComposite>
            <feColorMatrix values="0 0 0 0 0.498039216   0 0 0 0 0   0 0 0 0 0  0 0 0 1 0" type="matrix" in="shadowInnerInner1"></feColorMatrix>
        </filter>
    </defs>
    <g id="Page-1" stroke="none" stroke-width="1" fill="none" fill-rule="evenodd">
        <g id="Group-12" fill-rule="nonzero">
            <g id="Combined-Shape">
                <use fill="url(#linearGradient-1)" xlink:href="#path-2"></use>
                <use fill="black" fill-opacity="1" filter="url(#filter-3)" xlink:href="#path-2"></use>
            </g>
        </g>
    </g>
</svg>