<?xml version="1.0" encoding="UTF-8"?>
<svg width="516px" height="40px" viewBox="0 0 516 40" version="1.1" xmlns="http://www.w3.org/2000/svg" xmlns:xlink="http://www.w3.org/1999/xlink">
    <!-- Generator: Sketch 64 (93537) - https://sketch.com -->
    <title>Combined Shape</title>
    <desc>Created with Sketch.</desc>
    <g id="Page-1" stroke="none" stroke-width="1" fill="none" fill-rule="evenodd">
        <path d="M100.949815,0.747332225 C101.809704,0.747332225 102.153084,1.44415069 101.717752,2.30332068 C99.1093525,7.45690385 86.1241045,33.0121823 83.5264802,38.1564267 C83.1888465,38.8245104 82.373497,39.3675978 81.704695,39.3675978 L81.704695,39.3675978 L65.27702,39.3675978 C64.4178501,39.3675978 64.073751,38.6693426 64.509083,37.8101726 C70.5620648,25.8593767 76.6143283,13.9085808 82.6665918,1.95706655 C83.0063806,1.2882645 83.82173,0.747332225 84.4905321,0.747332225 L84.4905321,0.747332225 Z M273.399311,0.747188551 C274.262792,0.747188551 275.081015,1.13367137 275.629849,1.80031832 L275.629849,1.80031832 L292.41599,22.202732 C292.795289,22.6646436 293.527308,22.5791576 293.798133,22.0454091 C299.193089,11.3934253 298.117689,13.5133339 303.970246,1.95692288 C304.310035,1.28812082 305.126103,0.747188551 305.794186,0.747188551 L305.794186,0.747188551 L322.254188,0.747188551 C323.113358,0.747188551 323.457457,1.44400702 323.022125,2.303177 C320.413725,7.45676018 307.427759,33.012757 304.830853,38.156283 C304.493219,38.8243667 303.67787,39.3674541 303.009068,39.3674541 L303.009068,39.3674541 L298.412939,39.3674541 C297.548741,39.3674541 296.731236,38.9809713 296.182402,38.313606 L296.182402,38.313606 L279.636196,18.2028503 C279.258333,17.7445305 278.535654,17.8228328 278.266983,18.3522712 C275.504853,23.802541 270.639336,33.3618846 268.21843,38.156283 C267.881515,38.8243667 267.065447,39.3674541 266.397363,39.3674541 L266.397363,39.3674541 L249.96897,39.3674541 C249.1098,39.3674541 248.765701,38.6691989 249.201033,37.8100289 C255.254015,25.8599514 261.306278,13.9084371 267.358542,1.95692288 C267.698331,1.28812082 268.51368,0.747188551 269.182482,0.747188551 L269.182482,0.747188551 Z M157.996475,0.747188551 C158.855645,0.747188551 159.199744,1.44400702 158.765131,2.303177 C156.523818,6.72761508 155.071275,9.5960647 152.83068,14.0205028 C152.194205,15.2776495 145.391245,28.7104418 144.754769,29.9668701 C144.318719,30.8267585 144.663536,31.5221402 145.522706,31.5221402 L145.522706,31.5221402 L176.824941,31.5221402 C177.493025,31.5221402 177.760977,32.0645092 177.421188,32.7325929 C176.50814,34.5414474 175.590782,36.3474285 174.674861,38.156283 C174.337946,38.8243667 173.521878,39.3674541 172.853794,39.3674541 L172.853794,39.3674541 L122.324398,39.3674541 C121.465229,39.3674541 121.121129,38.6691989 121.555743,37.8100289 C127.609443,25.8599514 133.660988,13.9084371 139.713252,1.95692288 C140.053041,1.28812082 140.869109,0.747188551 141.537911,0.747188551 L141.537911,0.747188551 Z M450.557433,0.746901203 C451.416603,0.746901203 451.76142,1.44371967 451.32537,2.30288966 L451.32537,2.30288966 L448.675304,7.53693022 C448.335516,8.2050139 447.520166,8.74810128 446.851364,8.74810128 L446.851364,8.74810128 L415.20072,8.74810128 C414.533355,8.74810128 413.717287,9.28903356 413.37678,9.95639887 L413.37678,9.95639887 L411.048544,14.5561191 C410.613212,15.4152891 410.956593,16.1121076 411.815763,16.1121076 L411.815763,16.1121076 L442.776054,16.1121076 C443.635224,16.1121076 443.979323,16.808926 443.542554,17.6666593 C442.674045,19.3821258 441.806973,21.0954372 440.938464,22.8094669 C440.602267,23.4789873 439.784763,24.0199196 439.117397,24.0199196 L439.117397,24.0199196 L407.466035,24.0199196 C406.797951,24.0199196 405.980447,24.5615703 405.643531,25.2296539 L405.643531,25.2296539 L403.243459,29.9673011 C402.808127,30.8264711 403.150789,31.5218529 404.011396,31.5218529 L404.011396,31.5218529 L434.971687,31.5218529 C435.830857,31.5218529 436.172801,32.2172346 435.738905,33.0778413 C434.881891,34.7696016 434.024876,36.4627986 433.167861,38.156714 C432.829509,38.8247977 432.014159,39.36573 431.345357,39.36573 L431.345357,39.36573 L380.813088,39.36573 C379.954636,39.36573 379.609819,38.6689115 380.044432,37.8097416 C386.098133,25.8582273 392.149678,13.9081498 398.204815,1.95663553 C398.542448,1.28855185 399.358516,0.746901203 400.025881,0.746901203 L400.025881,0.746901203 Z M258.120884,0.747260388 C258.980772,0.747260388 259.324871,1.44407885 258.88954,2.30324884 C252.837276,14.2561998 246.784294,26.2062773 240.732031,38.1563549 C240.393679,38.8244385 239.576174,39.3660892 238.90809,39.3660892 L238.90809,39.3660892 L222.409297,39.3660892 C221.551564,39.3660892 221.206028,38.6692707 221.642078,37.8101007 C223.376941,34.3849147 225.109648,30.9626022 226.843792,27.5359794 C227.279842,26.6782461 226.936462,25.9799909 226.076573,25.9799909 L226.076573,25.9799909 L209.821307,25.9799909 C209.153224,25.9799909 208.337874,26.5245151 207.998804,27.191162 C206.149002,30.8455079 204.297764,34.5005722 202.447244,38.1563549 C202.107455,38.8244385 201.291387,39.3660892 200.623303,39.3660892 L200.623303,39.3660892 L184.158992,39.3660892 C183.30054,39.3660892 182.956441,38.6692707 183.391773,37.8101007 C189.444036,25.8585865 195.4963,13.908509 201.550719,1.95699472 C201.887634,1.28819266 202.703702,0.747260388 203.371785,0.747260388 L203.371785,0.747260388 Z M36.6326088,0.747188551 C37.4910604,0.747188551 37.8344411,1.44400702 37.4012642,2.303177 C35.5184176,6.03438846 32.0494111,12.8696748 31.0982898,14.7467744 C30.6636762,15.605226 31.0070568,16.3013261 31.8669452,16.3013261 L31.8669452,16.3013261 L46.4124919,16.3013261 C47.0805756,16.3013261 47.8966434,15.7603938 48.2342771,15.0930285 C49.2155699,13.1548675 53.0990757,5.47980717 54.8878159,1.95548614 C55.2261679,1.28812082 56.0422358,0.747188551 56.7117562,0.747188551 L56.7117562,0.747188551 L73.2083946,0.747188551 C74.068283,0.747188551 74.4116636,1.44400702 73.97705,2.303177 C67.9247865,14.256128 61.8718047,26.2062055 55.8195412,38.156283 C55.4811891,38.8243667 54.6636846,39.3660174 53.9956009,39.3660174 L53.9956009,39.3660174 L37.4968074,39.3660174 C36.6383558,39.3660174 36.2935384,38.6691989 36.7295887,37.8100289 C38.4637328,34.3848429 41.0944021,29.1903126 42.8285462,25.7644082 C43.2645965,24.9059566 42.9204975,24.2084198 42.0613275,24.2084198 L42.0613275,24.2084198 L27.5157808,24.2084198 C26.8476971,24.2084198 26.0316293,24.7529439 25.6925589,25.4195908 C23.8427573,29.0739368 21.0942754,34.5005004 19.2437554,38.156283 C18.9039666,38.8243667 18.0878988,39.3660174 17.4198151,39.3660174 L17.4198151,39.3660174 L0.955503329,39.3660174 C0.0970517127,39.3660174 -0.246328934,38.6691989 0.188284646,37.8100289 C6.24054813,25.8585146 12.2928116,13.9084371 18.3472302,1.95692288 C18.6841455,1.28812082 19.5002133,0.747188551 20.168297,0.747188551 L20.168297,0.747188551 Z M369.385768,0.746829366 C370.282293,0.746829366 371.165169,0.969523928 371.953939,1.39551707 L371.953939,1.39551707 L385.174812,8.52461652 C385.72221,8.81914803 385.934129,9.49657052 385.653246,10.0511518 C382.184958,16.9008055 378.715952,23.7497408 375.246945,30.5986761 C375.022095,31.0426285 374.634894,31.381699 374.165799,31.5454872 L374.165799,31.5454872 L352.616149,39.0732818 C352.062286,39.2672415 351.47897,39.3656582 350.89278,39.3656582 L350.89278,39.3656582 L314.457795,39.3656582 C313.600062,39.3656582 313.255963,38.6688397 313.691295,37.8096697 C319.743558,25.8581555 325.795822,13.9080779 331.849522,1.95728206 C332.187156,1.28848001 333.003223,0.746829366 333.671307,0.746829366 L333.671307,0.746829366 Z M515.043456,0.717519889 C515.901189,0.717519889 516.247443,1.41290162 515.811393,2.2720716 C512.016965,9.76251093 508.224692,17.2522319 504.430983,24.7412345 C504.093349,25.4078814 503.277999,25.9509688 502.609197,25.9509688 L502.609197,25.9509688 L498.179731,25.9509688 C497.320561,25.9509688 496.793996,26.6470689 497.004478,27.5069573 C497.96853,31.4500877 498.552564,33.8365114 499.515898,37.7803602 C499.724944,38.6395302 499.198379,39.3363487 498.340645,39.3363487 L498.340645,39.3363487 L483.960324,39.3363487 C483.293677,39.3363487 482.618409,38.7939797 482.45534,38.1280511 C481.560969,34.4722684 480.668036,30.8150491 479.774384,27.1607031 C479.609878,26.4933378 478.938202,25.9509688 478.2694,25.9509688 L478.2694,25.9509688 L468.328602,25.9509688 C467.661237,25.9509688 466.846606,26.4933378 466.507535,27.1607031 C464.656297,30.8150491 462.805777,34.4722684 460.953102,38.1280511 C460.616187,38.7939797 459.798682,39.3363487 459.132035,39.3363487 L459.132035,39.3363487 L442.667723,39.3363487 C441.809272,39.3363487 441.465891,38.6395302 441.899068,37.7803602 L441.899068,37.7803602 L460.058014,1.92581748 C460.397802,1.25917053 461.21387,0.717519889 461.881236,0.717519889 L461.881236,0.717519889 Z M359.305606,8.74802945 L348.849737,8.74802945 C348.180935,8.74802945 347.364868,9.28896172 347.025797,9.95632704 C345.920226,12.143044 338.11586,27.6224711 337.006697,29.809188 C336.572802,30.6690764 336.916901,31.3651765 337.774634,31.3651765 L337.774634,31.3651765 L349.275731,31.3651765 C349.751291,31.3651765 350.222542,31.2854374 350.671523,31.1281145 L350.671523,31.1281145 L356.27265,29.1719942 C356.636145,29.0448428 356.934268,28.7862298 357.107395,28.4421307 C358.989524,24.7137928 363.069863,16.6213597 365.138049,12.5266533 C365.358588,12.0898846 365.188335,11.5611646 364.75875,11.3284129 L364.75875,11.3284129 L360.557724,9.06411205 C360.172678,8.85650325 359.742375,8.74802945 359.305606,8.74802945 L359.305606,8.74802945 Z M122.952613,15.4894248 C123.811783,15.4894248 124.155882,16.1855249 123.72055,17.0454133 C122.910229,18.6473774 120.796786,22.7492675 120.28818,23.7557033 C119.950546,24.4245053 119.135197,24.9668744 118.466395,24.9668744 L118.466395,24.9668744 L100.465491,24.9668744 C99.6063206,24.9668744 99.2622215,24.2686192 99.6975535,23.4094492 C100.163057,22.4899361 102.79229,17.2982794 103.09616,16.6991592 C103.435949,16.0303571 104.251298,15.4894248 104.9201,15.4894248 L104.9201,15.4894248 Z M234.8062,8.7477421 L218.550934,8.7477421 C217.881414,8.7477421 217.065346,9.28867437 216.726994,9.95603969 C215.620705,12.143475 214.512979,14.3301919 213.404535,16.5183456 C212.969203,17.3767972 213.313302,18.0736156 214.17319,18.0736156 L214.17319,18.0736156 L230.427738,18.0736156 C231.09654,18.0736156 231.911889,17.531965 232.249523,16.8645997 C233.357967,14.676446 234.464975,12.4911658 235.574137,10.3037306 C236.008033,9.44456057 235.663933,8.7477421 234.8062,8.7477421 L234.8062,8.7477421 Z M491.754633,8.7180016 L477.056792,8.7180016 C476.390145,8.7180016 475.572641,9.2582155 475.234289,9.92701756 C474.127281,12.1137345 473.018837,14.299733 471.91183,16.4878867 C471.476498,17.3470567 471.821315,18.0424384 472.680485,18.0424384 L472.680485,18.0424384 L487.378326,18.0424384 C488.04641,18.0424384 488.861759,17.5029429 489.20083,16.8341408 C490.307837,14.6481423 491.414845,12.4599886 492.521852,10.2739901 C492.955747,9.41338333 492.613803,8.7180016 491.754633,8.7180016 L491.754633,8.7180016 Z" id="Combined-Shape" fill="#000000"></path>
    </g>
</svg>