<?xml version="1.0" encoding="utf-8"?>
<!-- Generator: Adobe Illustrator 24.2.1, SVG Export Plug-In . SVG Version: 6.00 Build 0)  -->
<svg version="1.1" id="Layer_1" xmlns="http://www.w3.org/2000/svg" xmlns:xlink="http://www.w3.org/1999/xlink" x="0px" y="0px"
	 width="400px" height="61px" viewBox="0 0 400 61" style="enable-background:new 0 0 400 61;" xml:space="preserve">
<style type="text/css">
	.st0{fill:#020000;}
	.st1{fill:#58595B;}
	.st2{fill:#AC1F23;}
	.st3{fill:url(#XMLID_2_);}
	.st4{fill:url(#XMLID_3_);}
	.st5{fill:url(#XMLID_4_);}
	.st6{fill:url(#XMLID_5_);}
	.st7{fill:url(#XMLID_6_);}
</style>
<g>
	<g>
		<path class="st0" d="M27.2,1.1L0.9,59.9h373.9l24.4-46.5c-6.3-3.7-15.4-9.1-21.4-12.4H27.2z"/>
		<path class="st1" d="M375.2,60.5H0L26.9,0.5h351.1l0.1,0.1c6,3.3,15,8.5,21.4,12.4l0.5,0.3L375.2,60.5z M1.8,59.4h372.7l24-45.7
			c-6.4-3.8-15-8.8-20.8-12h-350L1.8,59.4z"/>
	</g>
</g>
<g>
	<path id="XMLID_453_" class="st2" d="M311.1,17c1-2,2-4,3-6c0.5-1,0.1-1.8-0.9-1.8h-57.6c-0.8,0-1.7,0.6-2.1,1.4
		c-6.9,13.6-13.8,27.2-20.7,40.9c-0.5,1-0.1,1.8,0.9,1.8h57.6c0.8,0,1.7-0.6,2.1-1.4c1-1.9,2-3.9,2.9-5.8c0.5-1,0.1-1.8-0.9-1.8
		h-35.3c-1,0-1.4-0.8-0.9-1.8l2.7-5.4c0.4-0.8,1.3-1.4,2.1-1.4h36.1c0.8,0,1.7-0.6,2.1-1.4c1-2,2-3.9,3-5.9c0.5-1,0.1-1.8-0.9-1.8
		h-35.3c-1,0-1.4-0.8-0.9-1.8l2.7-5.2c0.4-0.8,1.3-1.4,2.1-1.4h36.1C309.8,18.3,310.7,17.7,311.1,17"/>
	<path id="XMLID_452_" class="st2" d="M241.2,17.2c1-2,2-4,3-6c0.5-1,0.1-1.8-0.9-1.8h-57.6c-0.8,0-1.7,0.6-2.1,1.4
		c-6.9,13.6-13.8,27.2-20.7,40.9c-0.5,1-0.1,1.8,0.9,1.8h57.6c0.8,0,1.7-0.6,2.1-1.4c1-1.9,2-3.9,2.9-5.8c0.5-1,0.1-1.8-0.9-1.8
		h-35.3c-1,0-1.4-0.8-0.9-1.8l2.7-5.4c0.4-0.8,1.3-1.4,2.1-1.4h36.1c0.8,0,1.7-0.6,2.1-1.4c1-2,2-3.9,3-5.9c0.5-1,0.1-1.8-0.9-1.8
		h-35.3c-1,0-1.4-0.8-0.9-1.8L201,20c0.4-0.8,1.3-1.4,2.1-1.4h36.1C239.9,18.6,240.9,18,241.2,17.2"/>
	<path id="XMLID_449_" class="st2" d="M371.8,43.3c4-7.8,7.9-15.6,11.9-23.4c0.3-0.6,0.1-1.4-0.5-1.7L368,10
		c-0.9-0.5-1.9-0.7-2.9-0.7h-40.7c-0.8,0-1.7,0.6-2.1,1.4c-6.9,13.6-13.8,27.2-20.7,40.9c-0.5,1-0.1,1.8,0.9,1.8H344
		c0.7,0,1.3-0.1,2-0.3l24.6-8.6C371.1,44.1,371.5,43.8,371.8,43.3z M328.2,42.4c1.3-2.5,10.2-20.1,11.4-22.6
		c0.4-0.8,1.3-1.4,2.1-1.4h11.9c0.5,0,1,0.1,1.4,0.4l4.8,2.6c0.5,0.3,0.7,0.9,0.4,1.4c-2.4,4.7-7,13.9-9.2,18.1
		c-0.2,0.4-0.5,0.7-1,0.8l-6.4,2.2c-0.5,0.2-1,0.3-1.6,0.3h-13.1C328.1,44.1,327.7,43.3,328.2,42.4z"/>
	<path id="XMLID_446_" class="st2" d="M113.3,10.9c-6.9,13.6-13.8,27.2-20.7,40.9c-0.5,1-0.1,1.8,0.9,1.8h18.8
		c0.8,0,1.7-0.6,2.1-1.4c2.1-4.2,4.2-8.3,6.3-12.5c0.4-0.8,1.3-1.4,2.1-1.4h39.1c0.8,0,1.7-0.6,2.1-1.4c4.3-8.5,8.6-17.1,13-25.6
		c0.5-1,0.1-1.8-0.9-1.8h-60.6C114.6,9.5,113.6,10.1,113.3,10.9 M144.4,29.2h-16.8c-1,0-1.4-0.8-0.9-1.8c1.3-2.5,2.5-5,3.8-7.5
		c0.4-0.8,1.3-1.4,2.1-1.4h16.8c1,0,1.4,0.8,0.9,1.8c-1.3,2.5-2.5,5-3.8,7.5C146.1,28.6,145.2,29.2,144.4,29.2"/>
	<path id="XMLID_445_" class="st2" d="M33.7,24.9c2.3-4.5,4.8-9.6,7.1-14.1c0.4-0.8,1.3-1.4,2.1-1.4h60.6c1,0,1.4,0.8,0.9,1.8
		c-1,2-2,4-3,6c-0.4,0.8-1.3,1.4-2.1,1.4H62.1c-0.8,0-1.7,0.6-2.1,1.4c-0.5,1-1,2-1.6,3.1c-0.6,1.2-0.2,1.6,0.5,1.8
		c10.9,2.9,22,5.8,32.9,8.7c0.7,0.2,1.1,0.5,0.5,1.8c-2.8,5.5-5.7,11.3-8.5,16.8c-0.4,0.8-1.3,1.4-2.1,1.4H21c-1,0-1.4-0.8-0.9-1.8
		c1-1.9,2-3.9,2.9-5.8c0.4-0.8,1.3-1.4,2.1-1.4h37.2c0.8,0,1.7-0.6,2.1-1.4c0.9-1.7,1.8-3.6,2.7-5.3c0.6-1.2,0.2-1.6-0.5-1.8
		c-10.6-3.1-21.9-6.4-32.5-9.4C33.5,26.5,33.1,26.2,33.7,24.9"/>
</g>
<g>
	<linearGradient id="XMLID_2_" gradientUnits="userSpaceOnUse" x1="271.7648" y1="61.4301" x2="272.4908" y2="-15.5336">
		<stop  offset="0" style="stop-color:#FFFFFF"/>
		<stop  offset="5.734800e-02" style="stop-color:#E9E9EA"/>
		<stop  offset="0.1272" style="stop-color:#A2A1A1"/>
		<stop  offset="0.2061" style="stop-color:#828282"/>
		<stop  offset="0.2814" style="stop-color:#747575"/>
		<stop  offset="0.3566" style="stop-color:#79797A"/>
		<stop  offset="0.457" style="stop-color:#969696"/>
		<stop  offset="0.6004" style="stop-color:#F7F7F7"/>
		<stop  offset="0.69" style="stop-color:#FFFFFF"/>
		<stop  offset="0.7545" style="stop-color:#FFFFFF"/>
		<stop  offset="0.8118" style="stop-color:#FFFFFF"/>
		<stop  offset="0.9158" style="stop-color:#FFFFFF"/>
		<stop  offset="0.9328" style="stop-color:#FBFBFB"/>
		<stop  offset="0.9482" style="stop-color:#F0F0F0"/>
		<stop  offset="0.9629" style="stop-color:#DEDEDE"/>
		<stop  offset="0.9772" style="stop-color:#C4C4C4"/>
		<stop  offset="0.9911" style="stop-color:#A3A3A3"/>
		<stop  offset="1" style="stop-color:#8A8A8A"/>
	</linearGradient>
	<path id="XMLID_444_" class="st3" d="M309.7,15.5c1-2,2-4,3-6c0.5-1,0.1-1.8-0.9-1.8h-57.6c-0.8,0-1.7,0.6-2.1,1.4
		c-6.9,13.6-13.8,27.2-20.7,40.9c-0.5,1-0.1,1.8,0.9,1.8h57.6c0.8,0,1.7-0.6,2.1-1.4c1-1.9,2-3.9,2.9-5.8c0.5-1,0.1-1.8-0.9-1.8
		h-35.3c-1,0-1.4-0.8-0.9-1.8l2.7-5.4c0.4-0.8,1.3-1.4,2.1-1.4h36.1c0.8,0,1.7-0.6,2.1-1.4c1-2,2-3.9,3-5.9c0.5-1,0.1-1.8-0.9-1.8
		h-35.3c-1,0-1.4-0.8-0.9-1.8l2.7-5.2c0.4-0.8,1.3-1.4,2.1-1.4h36.1C308.3,16.9,309.3,16.3,309.7,15.5"/>
	<linearGradient id="XMLID_3_" gradientUnits="userSpaceOnUse" x1="201.8811" y1="60.7708" x2="202.6071" y2="-16.1929">
		<stop  offset="0" style="stop-color:#FFFFFF"/>
		<stop  offset="5.734800e-02" style="stop-color:#E9E9EA"/>
		<stop  offset="0.1272" style="stop-color:#A2A1A1"/>
		<stop  offset="0.2061" style="stop-color:#828282"/>
		<stop  offset="0.2814" style="stop-color:#747575"/>
		<stop  offset="0.3566" style="stop-color:#79797A"/>
		<stop  offset="0.457" style="stop-color:#969696"/>
		<stop  offset="0.6004" style="stop-color:#F7F7F7"/>
		<stop  offset="0.69" style="stop-color:#FFFFFF"/>
		<stop  offset="0.7545" style="stop-color:#FFFFFF"/>
		<stop  offset="0.8118" style="stop-color:#FFFFFF"/>
		<stop  offset="0.9158" style="stop-color:#FFFFFF"/>
		<stop  offset="0.9328" style="stop-color:#FBFBFB"/>
		<stop  offset="0.9482" style="stop-color:#F0F0F0"/>
		<stop  offset="0.9629" style="stop-color:#DEDEDE"/>
		<stop  offset="0.9772" style="stop-color:#C4C4C4"/>
		<stop  offset="0.9911" style="stop-color:#A3A3A3"/>
		<stop  offset="1" style="stop-color:#8A8A8A"/>
	</linearGradient>
	<path id="XMLID_443_" class="st4" d="M239.8,15.8c1-2,2-4,3-6c0.5-1,0.1-1.8-0.9-1.8h-57.6c-0.8,0-1.7,0.6-2.1,1.4
		c-6.9,13.6-13.8,27.2-20.7,40.9c-0.5,1-0.1,1.8,0.9,1.8H220c0.8,0,1.7-0.6,2.1-1.4c1-1.9,2-3.9,2.9-5.8c0.5-1,0.1-1.8-0.9-1.8
		h-35.3c-1,0-1.4-0.8-0.9-1.8l2.7-5.4c0.4-0.8,1.3-1.4,2.1-1.4h36.1c0.8,0,1.7-0.6,2.1-1.4c1-2,2-3.9,3-5.9c0.5-1,0.1-1.8-0.9-1.8
		h-35.3c-1,0-1.4-0.8-0.9-1.8l2.7-5.2c0.4-0.8,1.3-1.4,2.1-1.4h36.1C238.5,17.2,239.4,16.5,239.8,15.8"/>
	<linearGradient id="XMLID_4_" gradientUnits="userSpaceOnUse" x1="340.8615" y1="62.082" x2="341.5876" y2="-14.8817">
		<stop  offset="0" style="stop-color:#FFFFFF"/>
		<stop  offset="5.734800e-02" style="stop-color:#E9E9EA"/>
		<stop  offset="0.1272" style="stop-color:#A2A1A1"/>
		<stop  offset="0.2061" style="stop-color:#828282"/>
		<stop  offset="0.2814" style="stop-color:#747575"/>
		<stop  offset="0.3566" style="stop-color:#79797A"/>
		<stop  offset="0.457" style="stop-color:#969696"/>
		<stop  offset="0.6004" style="stop-color:#F7F7F7"/>
		<stop  offset="0.69" style="stop-color:#FFFFFF"/>
		<stop  offset="0.7545" style="stop-color:#FFFFFF"/>
		<stop  offset="0.8118" style="stop-color:#FFFFFF"/>
		<stop  offset="0.9158" style="stop-color:#FFFFFF"/>
		<stop  offset="0.9328" style="stop-color:#FBFBFB"/>
		<stop  offset="0.9482" style="stop-color:#F0F0F0"/>
		<stop  offset="0.9629" style="stop-color:#DEDEDE"/>
		<stop  offset="0.9772" style="stop-color:#C4C4C4"/>
		<stop  offset="0.9911" style="stop-color:#A3A3A3"/>
		<stop  offset="1" style="stop-color:#8A8A8A"/>
	</linearGradient>
	<path id="XMLID_440_" class="st5" d="M370.3,41.8c4-7.8,7.9-15.6,11.9-23.4c0.3-0.6,0.1-1.4-0.5-1.7l-15.1-8.1
		c-0.9-0.5-1.9-0.7-2.9-0.7h-40.7c-0.8,0-1.7,0.6-2.1,1.4c-6.9,13.6-13.8,27.2-20.7,40.9c-0.5,1-0.1,1.8,0.9,1.8h41.5
		c0.7,0,1.3-0.1,2-0.3l24.6-8.6C369.6,42.7,370.1,42.3,370.3,41.8z M326.7,40.9c1.3-2.5,10.2-20.1,11.4-22.6
		c0.4-0.8,1.3-1.4,2.1-1.4h11.9c0.5,0,1,0.1,1.4,0.4l4.8,2.6c0.5,0.3,0.7,0.9,0.4,1.4c-2.4,4.7-7,13.9-9.2,18.1
		c-0.2,0.4-0.5,0.7-1,0.8l-6.4,2.2c-0.5,0.2-1,0.3-1.6,0.3h-13.1C326.6,42.7,326.2,41.9,326.7,40.9z"/>
	<linearGradient id="XMLID_5_" gradientUnits="userSpaceOnUse" x1="132.9218" y1="60.1203" x2="133.6479" y2="-16.8432">
		<stop  offset="0" style="stop-color:#FFFFFF"/>
		<stop  offset="5.734800e-02" style="stop-color:#E9E9EA"/>
		<stop  offset="0.1272" style="stop-color:#A2A1A1"/>
		<stop  offset="0.2061" style="stop-color:#828282"/>
		<stop  offset="0.2814" style="stop-color:#747575"/>
		<stop  offset="0.3566" style="stop-color:#79797A"/>
		<stop  offset="0.457" style="stop-color:#969696"/>
		<stop  offset="0.6004" style="stop-color:#F7F7F7"/>
		<stop  offset="0.69" style="stop-color:#FFFFFF"/>
		<stop  offset="0.7545" style="stop-color:#FFFFFF"/>
		<stop  offset="0.8118" style="stop-color:#FFFFFF"/>
		<stop  offset="0.9158" style="stop-color:#FFFFFF"/>
		<stop  offset="0.9328" style="stop-color:#FBFBFB"/>
		<stop  offset="0.9482" style="stop-color:#F0F0F0"/>
		<stop  offset="0.9629" style="stop-color:#DEDEDE"/>
		<stop  offset="0.9772" style="stop-color:#C4C4C4"/>
		<stop  offset="0.9911" style="stop-color:#A3A3A3"/>
		<stop  offset="1" style="stop-color:#8A8A8A"/>
	</linearGradient>
	<path id="XMLID_437_" class="st6" d="M111.8,9.4C104.9,23,98,36.6,91.1,50.2C90.6,51.2,91,52,92,52h18.8c0.8,0,1.7-0.6,2.1-1.4
		c2.1-4.2,4.2-8.3,6.3-12.5c0.4-0.8,1.3-1.4,2.1-1.4h39.1c0.8,0,1.7-0.6,2.1-1.4c4.3-8.5,8.6-17.1,13-25.6c0.5-1,0.1-1.8-0.9-1.8
		h-60.6C113.1,8,112.2,8.6,111.8,9.4 M142.9,27.8h-16.8c-1,0-1.4-0.8-0.9-1.8c1.3-2.5,2.5-5,3.8-7.5c0.4-0.8,1.3-1.4,2.1-1.4h16.8
		c1,0,1.4,0.8,0.9,1.8c-1.3,2.5-2.5,5-3.8,7.5C144.6,27.1,143.7,27.8,142.9,27.8"/>
	<linearGradient id="XMLID_6_" gradientUnits="userSpaceOnUse" x1="60.5243" y1="59.4373" x2="61.2503" y2="-17.5263">
		<stop  offset="0" style="stop-color:#FFFFFF"/>
		<stop  offset="5.734800e-02" style="stop-color:#E9E9EA"/>
		<stop  offset="0.1272" style="stop-color:#A2A1A1"/>
		<stop  offset="0.2061" style="stop-color:#828282"/>
		<stop  offset="0.2814" style="stop-color:#747575"/>
		<stop  offset="0.3566" style="stop-color:#79797A"/>
		<stop  offset="0.457" style="stop-color:#969696"/>
		<stop  offset="0.6004" style="stop-color:#F7F7F7"/>
		<stop  offset="0.69" style="stop-color:#FFFFFF"/>
		<stop  offset="0.7545" style="stop-color:#FFFFFF"/>
		<stop  offset="0.8118" style="stop-color:#FFFFFF"/>
		<stop  offset="0.9158" style="stop-color:#FFFFFF"/>
		<stop  offset="0.9328" style="stop-color:#FBFBFB"/>
		<stop  offset="0.9482" style="stop-color:#F0F0F0"/>
		<stop  offset="0.9629" style="stop-color:#DEDEDE"/>
		<stop  offset="0.9772" style="stop-color:#C4C4C4"/>
		<stop  offset="0.9911" style="stop-color:#A3A3A3"/>
		<stop  offset="1" style="stop-color:#8A8A8A"/>
	</linearGradient>
	<path id="XMLID_393_" class="st7" d="M32.3,23.5c2.3-4.5,4.8-9.6,7.1-14.1C39.8,8.7,40.7,8,41.5,8H102c1,0,1.4,0.8,0.9,1.8
		c-1,2-2,4-3,6c-0.4,0.8-1.3,1.4-2.1,1.4H60.6c-0.8,0-1.7,0.6-2.1,1.4c-0.5,1-1,2-1.6,3.1c-0.6,1.2-0.2,1.6,0.5,1.8
		c10.9,2.9,22,5.8,32.9,8.7c0.7,0.2,1.1,0.5,0.5,1.8C88,39.3,85,45.2,82.2,50.7c-0.4,0.8-1.3,1.4-2.1,1.4H19.6c-1,0-1.4-0.8-0.9-1.8
		c1-1.9,2-3.9,2.9-5.8c0.4-0.8,1.3-1.4,2.1-1.4h37.2c0.8,0,1.7-0.6,2.1-1.4c0.9-1.7,1.8-3.6,2.7-5.3c0.6-1.2,0.2-1.6-0.5-1.8
		c-10.6-3.1-21.9-6.4-32.5-9.4C32.1,25.1,31.6,24.7,32.3,23.5"/>
</g>
</svg>
